<?xml version="1.0" encoding="UTF-8" standalone="no"?><!DOCTYPE svg PUBLIC "-//W3C//DTD SVG 1.1//EN" "http://www.w3.org/Graphics/SVG/1.1/DTD/svg11.dtd"><svg width="100%" height="100%" viewBox="0 0 57796 13730" version="1.1" xmlns="http://www.w3.org/2000/svg" xmlns:xlink="http://www.w3.org/1999/xlink" xml:space="preserve" xmlns:serif="http://www.serif.com/" style="fill-rule:evenodd;clip-rule:evenodd;stroke-linejoin:round;stroke-miterlimit:2;"><g><g><path d="M7363.62,3821.68c-195.842,-2213.01 -2428.43,-4230.17 -4621.88,-2898.45c-2017.17,1233.8 -2741.78,4406.42 -2741.78,6599.88c-0,2075.92 940.037,5248.54 3192.22,5953.58c1331.72,411.267 2193.43,-724.612 2545.94,-1840.91c274.179,-802.95 411.267,-1625.49 372.1,-2448.02c881.288,-1645.07 1410.06,-3544.73 1253.38,-5366.04l0.017,-0.033Zm-4112.67,8205.75c-802.95,274.175 -1155.46,-724.616 -1370.89,-1292.55c-744.2,-1978 -411.267,-4249.75 391.683,-6149.42c372.096,-900.87 920.454,-1919.25 1821.33,-2389.26c411.267,-215.429 1214.22,-450.438 1586.32,-39.171c274.175,332.933 235.008,1077.13 215.425,1488.4c-19.584,1077.13 -254.596,2154.26 -646.279,3172.63c-509.188,-352.516 -1214.22,-450.437 -842.117,372.096c137.087,293.763 215.425,607.108 254.592,920.458c-352.513,665.859 -783.363,1292.55 -1233.8,1860.49c-274.18,332.929 156.675,959.625 607.108,1253.39c-176.258,352.512 -411.267,685.441 -783.367,802.95l0,-0.009Z" style="fill:#fff;fill-rule:nonzero;"/></g><g><path d="M13336.8,511.958c-78.337,2036.75 -274.179,4093.09 -587.525,6110.25c-97.921,646.275 -411.266,3564.31 -1135.88,4876.46c-39.167,-293.763 -58.75,-567.938 -78.333,-861.7c-58.755,-979.209 -58.755,-1958.42 -39.171,-2937.62c19.587,-1684.23 137.092,-3368.47 176.258,-5072.29c0,-313.346 -391.683,-724.612 -763.783,-959.625c-372.096,-430.85 -998.788,-724.612 -1175.05,-313.346c-783.367,1958.42 -1429.64,3975.58 -1840.91,6051.5c-313.346,1449.23 -1096.71,3623.07 78.337,4817.71c783.367,783.362 1429.64,137.087 665.863,-646.28c195.841,117.505 332.929,-998.791 332.929,-1096.71l176.258,-1096.71c156.671,-783.366 313.346,-1586.32 509.188,-2369.68l411.266,-1429.65c-39.166,1214.22 -58.754,2408.85 -19.583,3623.07c39.167,1037.96 -0,2369.68 372.1,3348.89c293.762,802.95 1194.63,1410.06 1958.41,822.533c705.03,-528.771 959.625,-1684.24 1175.05,-2487.19c293.763,-1057.54 489.605,-2134.67 646.275,-3192.22c313.346,-2115.09 528.775,-4269.33 607.109,-6404c19.583,-587.525 -1449.23,-1645.07 -1468.81,-783.367l0,-0.021Z" style="fill:#fff;fill-rule:nonzero;"/></g><g><path d="M25224.4,6563.46l509.187,-1410.06c235.008,-646.275 470.017,-1292.55 744.196,-1919.25c235.008,-607.108 450.437,-1449.23 1018.38,-1840.91c489.604,-332.934 -744.196,-1684.24 -1312.14,-1292.55c-607.108,411.266 -1449.23,2820.12 -2408.85,5385.62c-372.095,372.1 -763.779,705.029 -1175.05,1037.96c-235.013,215.425 -489.605,430.85 -744.2,626.692c-58.75,39.166 -117.505,58.754 -156.671,97.921c78.333,-352.517 117.504,-881.288 176.254,-1135.88c137.092,-548.358 274.179,-1096.71 430.854,-1645.07c313.346,-1077.12 685.442,-2134.67 1096.71,-3192.22c215.425,-567.938 -1175.05,-1742.99 -1449.23,-1077.12c-626.691,1645.07 -1175.05,3309.72 -1566.73,5013.54c-254.592,1096.71 -607.108,2252.18 274.179,3172.63c567.942,587.525 1194.63,646.279 1801.74,450.437c-979.208,2232.59 -1997.58,3877.66 -2937.62,3309.72c-313.346,-195.841 -626.692,-156.675 -685.446,215.425c-58.754,391.683 509.188,842.117 783.367,1018.38c2467.6,1527.56 3838.49,-2389.27 4543.5,-4053.92c352.517,-861.704 685.446,-1762.58 1018.38,-2643.86l39.171,-117.504l0.021,0.012Z" style="fill:#f00;fill-rule:nonzero;"/></g><g><path d="M28534.3,4252.54c-724.617,-372.1 -1586.32,-332.93 -2115.09,332.929c-470.021,587.525 -450.437,1351.31 -274.179,2056.34c-705.029,1527.56 -979.208,3818.91 724.612,4758.96c1664.65,900.871 2996.38,-1723.4 3407.64,-2996.38c528.771,-1703.82 -137.087,-3309.72 -1742.99,-4151.84l-0,-0.012Zm-215.425,4210.58c-215.43,352.517 -450.438,705.029 -724.617,1018.38c-117.504,156.675 -254.592,293.763 -391.683,450.438c-78.334,19.583 -156.671,39.166 -195.842,78.333c-78.333,-548.354 137.092,-1253.38 372.1,-1821.33c293.762,19.587 489.604,-137.088 372.1,-489.604l-58.754,-176.254c-0,-0 -0,-19.584 19.583,-39.171c97.921,-195.842 -19.583,-450.434 -215.425,-705.029c-19.583,-313.346 39.171,-607.109 235.013,-881.284c293.762,-411.271 842.116,-626.696 1175.05,-137.092c470.02,705.03 -215.425,2075.92 -587.521,2702.61Z" style="fill:#f00;fill-rule:nonzero;"/></g><g><path d="M34918.6,4350.46c-372.095,1410.06 -763.779,2820.12 -1116.3,4230.17l-78.333,39.171c-293.762,195.841 -607.108,372.096 -920.458,528.771c117.508,-372.1 215.429,-763.784 313.35,-1135.88c235.008,-900.87 470.016,-1821.33 509.187,-2741.78c19.584,-587.525 -1449.23,-1645.07 -1468.81,-783.367c-39.167,920.459 -313.346,1840.91 -548.358,2722.2c-137.088,528.77 -293.759,1037.96 -470.017,1547.14c-117.504,372.1 -411.267,842.117 -470.021,1233.8c-78.338,705.03 724.613,1547.15 1449.23,1429.65c372.096,-58.754 822.534,-352.516 1194.63,-548.358l-117.504,646.279c-117.504,626.692 1331.73,1723.4 1429.65,1077.12c430.85,-2428.43 1116.3,-4798.12 1742.99,-7187.38c156.67,-607.108 -1272.97,-1723.41 -1449.23,-1057.55l0,0.004Z" style="fill:#f00;fill-rule:nonzero;"/></g><g><path d="M43359.2,2176.61c998.791,274.179 117.504,-1233.8 -470.021,-1390.47c-2271.76,-607.108 -4582.71,-1018.38 -6541.12,607.109c-470.021,391.683 802.95,1723.4 1331.72,1292.55c587.525,-489.604 1233.8,-763.783 1880.08,-900.871c-1351.31,3427.22 -2134.67,7050.29 -2310.93,10732.1c-19.584,587.525 1429.64,1645.07 1468.81,783.367c195.838,-3936.41 1116.3,-7794.5 2683.03,-11417.5c19.584,-19.587 19.584,-78.337 39.171,-117.508c626.692,78.337 1272.97,235.012 1919.25,411.266l0.021,-0.029Z" style="fill:#f00;fill-rule:nonzero;"/></g><g><path d="M44612.9,4350.46c-372.1,1410.06 -763.784,2820.12 -1116.3,4230.17l-78.338,39.171c-293.762,195.841 -607.108,372.096 -920.454,528.771c117.504,-372.1 215.425,-763.784 313.346,-1135.88c235.008,-900.87 470.021,-1821.33 509.188,-2741.78c19.583,-587.525 -1449.23,-1645.07 -1468.81,-783.367c-39.167,920.459 -313.346,1840.91 -548.354,2722.2c-137.088,528.77 -293.763,1037.96 -470.021,1547.14c-117.504,372.1 -411.267,842.117 -470.017,1233.8c-78.337,705.03 724.613,1547.15 1449.23,1429.65c372.1,-58.754 822.534,-352.516 1194.63,-548.358l-117.504,646.279c-117.505,626.692 1331.72,1723.4 1429.64,1077.12c430.85,-2428.43 1116.3,-4798.12 1742.99,-7187.38c156.675,-607.108 -1272.97,-1723.41 -1449.23,-1057.55l-0,0.004Z" style="fill:#f00;fill-rule:nonzero;"/></g><g><path d="M51036.2,4663.79c-861.7,-567.938 -1625.48,-528.771 -2271.76,-137.088c215.425,-724.612 470.016,-1468.81 744.196,-2193.43c215.425,-567.942 -1194.63,-1742.99 -1449.23,-1077.13c-1253.39,3309.72 -1938.83,6736.96 -2115.09,10242.5c-39.167,587.525 1429.65,1645.07 1468.81,783.367l39.167,-705.03c274.179,274.18 607.113,489.605 861.704,430.85c1762.58,-411.266 2957.21,-1782.15 3505.56,-3446.81c470.02,-1429.64 607.108,-2996.38 -783.367,-3897.25l0,0.009Zm-489.604,2134.67c-97.921,528.775 -274.175,1018.38 -509.188,1488.39c-509.187,1037.96 -1331.72,1801.74 -2408.85,2173.84c235.013,-1605.9 861.704,-3368.47 2134.67,-4347.67c97.921,-78.337 548.359,-430.854 705.034,-372.1c372.095,156.675 137.087,822.534 78.333,1057.54l-0,-0.012Z" style="fill:#f00;fill-rule:nonzero;"/></g><g><path d="M57303.3,10167c254.592,-548.354 -1135.88,-1742.99 -1449.23,-1077.13c-215.429,470.021 -1468.81,1586.32 -1978,1370.89c-274.179,-117.504 -215.425,-1057.55 -195.841,-1272.97c58.75,-470.017 195.841,-940.037 372.1,-1370.89c1547.15,763.779 3975.58,1057.54 3720.99,-1351.31c-97.921,-940.037 -861.704,-1782.16 -1742.99,-2095.5c-1077.12,-391.683 -2036.75,195.842 -2663.44,1037.96c-1194.63,1605.9 -1742.99,4014.75 -254.596,5601.08c1272.97,1351.31 3407.64,842.121 4191,-842.117l0.008,-0.021Zm-998.791,-4073.5c97.921,685.446 -861.704,920.459 -1331.72,861.704c-97.921,0 -215.425,-19.583 -332.933,-58.754c567.941,-763.779 1507.98,-1742.99 1664.65,-802.95Z" style="fill:#f00;fill-rule:nonzero;"/></g></g></svg>